<?xml version="1.0" encoding="UTF-8" standalone="no"?>
<!-- Created with Inkscape (http://www.inkscape.org/) -->

<svg
   width="24"
   height="24"
   viewBox="0 0 24 24"
   version="1.1"
   id="svg1"
   sodipodi:docname="icon.svg"
   inkscape:version="1.3 (0e150ed6c4, 2023-07-21)"
   xmlns:inkscape="http://www.inkscape.org/namespaces/inkscape"
   xmlns:sodipodi="http://sodipodi.sourceforge.net/DTD/sodipodi-0.dtd"
   xmlns="http://www.w3.org/2000/svg"
   xmlns:svg="http://www.w3.org/2000/svg">
  <sodipodi:namedview
     id="namedview1"
     pagecolor="#ffffff"
     bordercolor="#000000"
     borderopacity="0.25"
     inkscape:showpageshadow="2"
     inkscape:pageopacity="0.0"
     inkscape:pagecheckerboard="0"
     inkscape:deskcolor="#d1d1d1"
     inkscape:zoom="6.375"
     inkscape:cx="-34.352941"
     inkscape:cy="46.27451"
     inkscape:window-width="1866"
     inkscape:window-height="1016"
     inkscape:window-x="1134"
     inkscape:window-y="407"
     inkscape:window-maximized="1"
     inkscape:current-layer="g1" />
  <defs
     id="defs1" />
  <g
     id="layer1">
    <g
       id="g1"
       transform="matrix(0.04871281,0,0,0.04871281,-0.20192489,0.10404628)">
      <path
         style="color:#000000;fill:#000000;-inkscape-stroke:none"
         d="m 415.67187,44.126953 c -0.0853,5.71e-4 -0.11511,0.0037 -0.14648,0.0059 -0.0627,0.0043 -0.10264,0.0089 -0.15039,0.01367 -0.0955,0.0096 -0.2091,0.02255 -0.34961,0.03906 -0.28102,0.03303 -0.66748,0.08035 -1.13086,0.138672 -0.92676,0.116654 -2.15573,0.274033 -3.39062,0.433593 -1.2349,0.159561 -2.47503,0.320973 -3.41797,0.441407 -0.47147,0.06022 -0.86896,0.110019 -1.15039,0.144531 -0.14072,0.01726 -0.25424,0.03093 -0.32618,0.03906 -0.0719,0.0081 -0.39345,0.002 0.082,0.002 -3.26031,0 -5.12801,1.016416 -7.48829,1.310546 -1.24226,0.154808 -3.03864,-0.289562 -5.30273,0.002 -1.72364,0.215383 -2.60376,0.318313 -3.08789,0.386718 -0.12134,0.01715 -0.21587,0.03086 -0.33789,0.05469 -0.061,0.01191 -0.12478,0.02324 -0.25,0.06055 -0.0626,0.01865 -0.13821,0.04059 -0.26953,0.09961 -0.0657,0.02951 -0.14692,0.06974 -0.25391,0.136719 -0.10699,0.06698 -0.41523,0.340959 -0.41601,0.341797 -3.2e-4,3.36e-4 -0.14804,0.198526 -0.2168,0.291015 -0.64724,-0.06423 -1.18195,-0.222033 -2.18555,-0.0957 -4.90738,0.617755 -9.47456,1.933568 -13.93164,2.271485 -0.51753,0.03924 -1.56226,-0.165752 -2.80273,-0.304688 -1.24047,-0.138936 -3.00113,-0.1676 -4.40235,1.089844 -0.2512,0.225433 -1.25474,0.627049 -2.75781,0.730469 -1.50307,0.103419 -3.42253,-0.01362 -5.39844,-0.244141 -3.95181,-0.461046 -8.0025,-1.356874 -10.50781,-1.556641 -2.22214,-0.177186 -3.28213,-0.06024 -4.03516,0.0293 -0.75302,0.08954 -1.25711,0.163469 -3.43945,-0.02734 -1.18039,-0.103207 -2.64257,-0.59265 -4.47461,-0.746093 -3.88443,-0.325344 -7.62386,-0.0059 -11.17969,-0.0059 -2.55469,0 -5.50059,-0.516746 -8.69726,0.02734 -0.29066,0.04947 -0.63194,0.377896 -0.96289,0.650391 -0.46908,0.01732 -1.12053,0.0062 -1.78711,-0.02344 -0.68407,-0.03039 -1.37943,-0.0759 -1.94336,-0.115234 -0.56393,-0.03933 -0.8306,-0.07617 -1.2793,-0.07617 h -9.3125 -22.66992 c -2.76587,0 -5.85073,-0.44434 -9.1543,0.01953 -1.4268,0.200345 -1.95404,0.242105 -2.73242,0.554688 -0.0179,0.0072 -0.0669,0.05419 -0.0859,0.06055 -0.0786,-1.27e-4 -0.0383,0 -0.125,0 -7.8614,0 -16.35987,-0.913516 -24.60351,0.01172 -1.10964,0.124542 -1.844,0.534351 -2.49609,0.820313 -0.6521,0.285962 -1.21693,0.426367 -1.13868,0.423828 -26.84683,0.870998 -53.85407,0.18245 -80.86132,1.888672 -6.62896,0.418794 -9.3382,0.608078 -10.36329,0.726562 -0.12813,0.01481 -0.22327,0.02685 -0.37695,0.05664 -0.0768,0.0149 -0.14325,0.01469 -0.39453,0.111328 -0.0628,0.02416 -0.13975,0.05523 -0.25,0.115234 -0.11025,0.06001 -0.46203,0.342903 -0.46289,0.34375 -4e-5,4.3e-5 -0.0264,0.05479 -0.0293,0.06055 -0.8791,0.07156 -1.32153,0.115153 -2.5,0.205078 -2.76708,0.211148 -5.85679,-0.236338 -9.2207,-0.002 -2.36534,0.16481 -4.49359,0.644232 -6.44727,0.785157 -3.14731,0.227024 -6.70831,-0.335126 -10.50976,0.002 -1.98144,0.175695 -3.60151,0.676178 -4.94336,0.742187 -5.51964,0.271524 -11.153103,-0.002 -16.880861,-0.002 -4.712659,0 -9.630362,0.509363 -13.822265,0.01367 -0.830021,-0.09815 -2.03006,-0.621566 -3.716797,-0.751953 C 64.929943,55.064658 54.68085,55.410396 44.818359,54.261719 l -6.126953,-0.712891 4.482422,4.238281 c 1.60205,1.515319 2.530189,2.248557 3.433594,2.791016 0.601726,0.361313 1.287076,0.725021 1.955078,1.087891 0.06756,0.418559 0.212058,0.877743 0.607422,1.263671 0.2424,0.236617 0.483249,0.174006 0.767578,0.269532 0.126838,0.193422 0.296685,0.438785 0.511719,0.935547 0.210314,0.485859 0.443286,1.040902 0.691406,1.58789 -0.08233,0.319483 -0.200971,0.877405 0.207031,1.705078 0.77584,1.57386 2.032504,2.700885 3.214844,3.832032 1.18234,1.131146 2.321605,2.246839 2.693359,2.808593 2.422838,3.661126 5.798895,9.522753 6.939453,13.119141 0.494788,1.560155 0.403534,3.645619 0.753907,6.046875 0.890555,6.10334 0.722656,12.205645 0.722656,18.648435 0,16.9536 -0.461503,34.10554 2.554687,51.1875 0.511793,2.89849 1.377214,5.51537 1.785157,8.00977 1.098482,6.71675 1.042114,13.99692 2.375,21.18359 0.770625,4.15507 2.765701,7.72443 3.652343,10.98633 0.113086,0.41603 0.492189,2.75299 0.78711,4.87109 0.294921,2.11811 0.528661,4.03388 0.716797,4.9668 0.514041,2.54899 1.367232,4.75451 1.697265,6.80273 3.549839,22.03078 1.051346,44.90038 1.81836,67.62891 0.242027,7.17188 1.084115,14.19963 1.326172,21.13867 0.825723,23.67107 -0.0233,47.69749 -2.201172,71.30274 -1.176593,12.7527 -3.645374,25.50359 -4.814453,38.5332 -0.554199,6.17666 -2.501964,12.96185 -3.625,19.78125 -1.123037,6.8194 -1.421042,13.80726 1.789062,20.1875 0.462896,0.92003 1.617527,1.60138 2.064453,1.73828 0.446926,0.1369 0.157664,0.003 0.199219,0.0449 0.33269,0.33298 1.164033,1.59755 2.066406,2.85157 0.902373,1.25401 1.863056,2.69399 3.785156,3.30664 1.957752,0.62401 3.806956,0.30824 5.375,-0.043 1.568045,-0.35121 2.943321,-0.74245 4.025391,-0.77735 7.413548,-0.23902 14.846002,-0.20894 22.277342,0 4.88123,0.13725 12.49661,0.98312 17.89258,1.76758 3.83475,0.5575 8.62847,1.51716 13.14258,0.73633 3.71743,-0.64302 6.68244,-2.63968 9.34375,-4.62109 2.6613,-1.98141 5.07555,-3.96738 7.52734,-5.03907 0.50348,-0.22007 2.87243,-0.99407 5.06055,-1.64453 2.18811,-0.65045 4.41396,-1.27102 5.00586,-1.41797 4.0365,-1.0021 7.85723,-2.23335 11.62695,-2.69531 7.54913,-0.9251 17.59015,1.2398 26.22852,-0.004 2.57358,-0.37054 4.26458,-0.99114 5.69922,-1.58008 1.43464,-0.58894 2.5913,-1.11883 4.66406,-1.58789 6.79625,-1.53799 13.89002,-2.10247 21.0332,-2.66016 6.08343,-0.47496 12.36213,0.006 18.7832,0.006 9.61909,0 19.08483,0.1114 28.57813,0.78125 1.18096,0.0833 5.06115,0.68577 8.55664,1.27148 1.74775,0.29286 3.4349,0.58331 4.75,0.80664 1.3151,0.22334 2.03957,0.36113 2.625,0.41993 5.35426,0.53779 12.55412,0.43762 17.91016,0.004 2.61533,-0.21178 4.94878,-0.79663 7.08593,-0.92578 11.61702,-0.70199 23.68605,0.37134 35.67188,0.004 4.51366,-0.13837 8.84803,-0.78095 13.05664,-0.95703 6.11769,-0.25597 12.33252,0.002 18.62695,0.002 4.71119,0 9.76359,-0.50127 13.98828,-0.0137 2.06435,0.23825 5.83375,1.38783 9.1875,2.58594 3.35376,1.1981 6.32088,2.41057 7.46094,2.84179 -0.17027,-0.0644 0.0895,0.0364 0.28906,0.11914 0.19956,0.0828 0.47974,0.1989 0.81446,0.33985 0.66942,0.28188 1.55993,0.66128 2.48242,1.06445 1.84497,0.80635 4.07232,1.90821 4.20508,1.99805 -0.25222,-0.17069 0.24483,0.18238 0.64648,0.49023 0.40165,0.30786 0.93128,0.72024 1.47852,1.16211 1.01021,0.81571 2.03115,1.78191 2.27343,2.03516 0.0233,0.059 0.0378,0.0647 0.0566,0.14648 0.0487,0.21148 0.0741,0.51344 0.4336,1.0332 0.35952,0.51977 1.55595,1.09985 2.33203,0.94141 0.47185,-0.0963 1.07966,-0.37966 1.48828,-0.89258 0.40862,-0.51291 0.53123,-1.11576 0.53711,-1.54101 0.0118,-0.85051 -0.22715,-1.28474 -0.41211,-1.70899 -0.36991,-0.84849 -0.76345,-1.7051 -0.73828,-1.59179 -0.47846,-2.15384 -0.54901,-4.53093 -1.11133,-7.08399 0.38436,-0.59248 0.36988,-1.04422 0.35547,-1.25 -0.0365,-0.52182 -0.12307,-0.69341 -0.23242,-1.03125 -0.10935,-0.33784 -0.26013,-0.75168 -0.4707,-1.30078 -0.63109,-1.64565 -1.46232,-3.07373 -2.19336,-4.40625 -3.20219,-5.83687 -4.36004,-10.03424 -4.78711,-14.58789 -0.42708,-4.55366 -0.0625,-9.54475 -0.0625,-16.54688 0,-6.31108 0.30416,-12.72581 -0.002,-19.22265 -0.15782,-3.3496 -0.78377,-6.46198 -0.9414,-9.40625 -0.13384,-2.49993 0.14524,-5.22193 0,-8.14453 -0.20621,-4.14932 -0.82844,-8.12295 -1,-11.97657 -0.14459,-3.24781 0.34362,-6.79835 -0.006,-10.59179 -0.36441,-3.95545 -1.52653,-7.5169 -1.97266,-10.90235 -0.12344,-0.93672 -0.12892,-1.0857 -0.23437,-1.90429 0.20283,-0.23553 0.32278,-0.44426 0.3789,-0.58399 0.25649,-0.63853 0.15429,-0.6821 0.15625,-0.80859 0.002,-0.12649 -0.002,-0.21457 -0.008,-0.30664 -0.0465,-0.73654 -0.21341,-1.81322 -0.43359,-3.1836 -0.22019,-1.37037 -0.49049,-2.91913 -0.73633,-4.17578 -0.12292,-0.62832 -0.23878,-1.18003 -0.3457,-1.625 -0.0535,-0.22248 -0.10288,-0.41553 -0.16407,-0.61133 -0.0306,-0.0979 -0.0615,-0.19536 -0.11718,-0.32812 -0.0532,-0.12686 -0.0742,-0.28113 -0.42969,-0.66602 -0.85677,-4.24646 -1.39066,-6.67356 -3.36719,-17.27148 -1.40059,-7.50982 -1.23079,-15.33919 -1.71094,-23.29492 -0.16681,-2.76386 -0.70568,-5.29817 -0.87304,-7.66797 -0.91373,-12.93828 0.96395,-26.36483 0,-39.88281 -0.17588,-2.4663 -0.6107,-4.78747 -0.9043,-7.01368 0.29004,-21.62292 0.58106,-43.24621 0.87109,-64.86914 v -0.002 c 0.10787,-8.75485 -0.61743,-17.00108 -0.98437,-25.61133 -0.35048,-8.22394 0.002,-16.65977 0.002,-25.06836 V 97.734375 c 0,-2.874099 0.38958,-6.018242 -0.0137,-9.359375 -0.93105,-7.714208 -1.72557,-10.405998 -2.31836,-12.34375 -0.59279,-1.937752 -0.96218,-2.99132 -1.32227,-8.589844 0.0166,0.258507 -0.003,-0.360342 0.002,-0.982422 0.005,-0.622079 0.0142,-1.474875 0.0254,-2.478515 0.0224,-2.007281 0.0531,-4.618718 0.0762,-7.220703 0.0231,-2.601986 0.0384,-5.193103 0.0273,-7.177735 -0.006,-0.992315 -0.0173,-1.830195 -0.0391,-2.46289 -0.0109,-0.316348 -0.0226,-0.577917 -0.043,-0.814454 -0.0102,-0.118268 -0.0202,-0.225058 -0.0449,-0.371093 -0.0247,-0.146035 0.18379,-0.172296 -0.39453,-0.964844 -1.1e-4,-1.52e-4 -1.11483,-0.767467 -1.11524,-0.767578 -4e-4,-1.11e-4 -0.26814,-0.05757 -0.33593,-0.06445 -0.13559,-0.01377 -0.18389,-0.01005 -0.22657,-0.0098 z m -1.91796,4.349609 c 0.006,0.38395 0.015,0.661089 0.0176,1.128907 0.0108,1.944121 -0.004,4.525838 -0.0273,7.11914 -0.023,2.593303 -0.0537,5.198661 -0.0762,7.208985 -0.0112,1.005162 -0.0208,1.862082 -0.0254,2.496093 -0.005,0.634012 -0.0235,0.819033 0.006,1.275391 0.37111,5.770072 0.90526,7.600425 1.49414,9.525391 0.58888,1.924966 1.25542,4.073892 2.16797,11.634765 0.32476,2.690814 -0.0156,5.667522 -0.0156,8.869141 v 18.199215 c 0,8.29224 -0.3585,16.78612 0.002,25.24414 0.3719,8.7264 1.08514,16.88978 0.98047,25.38477 -0.29071,21.67371 -0.58232,43.34778 -0.87304,65.02148 l -0.002,0.14649 0.0195,0.14453 c 0.31374,2.42179 0.74154,4.7138 0.89844,6.91406 0.9225,12.93661 -0.95465,26.36305 0,39.88086 0.19408,2.74811 0.72686,5.26946 0.86914,7.62695 0.46632,7.72652 0.26961,15.73347 1.77344,23.79688 2.29162,12.28738 3.08764,16.07649 3.92773,20.13281 0.0217,0.23114 0.0224,0.32339 0.0508,0.59961 0.21074,2.053 0.61235,5.38242 1.28906,10.51758 0.51201,3.88545 1.64669,7.39676 1.95508,10.74414 0.29234,3.17327 -0.17438,6.65696 -0.008,10.39844 0.18509,4.15738 0.81014,8.1364 1.00196,11.99609 0.12452,2.50565 -0.15672,5.23293 0,8.16016 0.17881,3.33982 0.80109,6.44436 0.93945,9.38086 0.29401,6.23984 -0.004,12.58957 -0.004,19.02929 0,6.85344 -0.38978,11.89896 0.082,16.92969 0.47182,5.03074 1.86699,9.96499 5.27539,16.17774 0.71394,1.30135 1.36751,2.49774 1.84375,3.67382 -0.16933,0.49801 -0.18969,0.86828 -0.16797,1.03907 0.0543,0.42701 0.13609,0.64069 0.2539,0.99414 0.47477,1.42429 0.63634,3.10484 0.83399,4.92383 -0.14934,-0.11602 -0.34426,-0.27268 -0.47266,-0.3711 -0.42437,-0.32527 -0.49534,-0.39312 -0.84375,-0.6289 -1.17782,-0.79708 -2.96873,-1.53307 -4.85937,-2.35938 -0.94533,-0.41315 -1.85244,-0.8004 -2.53516,-1.08789 -0.34136,-0.14374 -0.62663,-0.26165 -0.83398,-0.34766 -0.20736,-0.086 -0.19563,-0.0868 -0.41016,-0.16797 -0.94482,-0.35737 -4.0736,-1.63196 -7.53125,-2.86718 -3.45765,-1.23522 -7.21525,-2.46616 -10.09766,-2.79883 -4.88151,-0.5634 -10.06128,-0.0137 -14.45703,-0.0137 -6.18017,0 -12.45281,-0.26357 -18.79883,0.002 -4.49662,0.18814 -8.81663,0.82843 -13.01171,0.95703 -11.65155,0.35719 -23.7585,-0.72515 -35.79102,0.002 -2.64686,0.15996 -5.01011,0.75659 -7.17188,0.93165 -5.10371,0.41328 -12.2394,0.49893 -17.16796,0.004 0.1045,0.0105 -1.04086,-0.16251 -2.34961,-0.38476 -1.30875,-0.22226 -2.9996,-0.51203 -4.75782,-0.80664 -3.51643,-0.58923 -7.15267,-1.19174 -8.94726,-1.31836 -9.65196,-0.68105 -19.21452,-0.79102 -28.86524,-0.79102 -6.20831,0 -12.59587,-0.50222 -19.10351,0.006 -7.14473,0.55781 -14.43747,1.12479 -21.61914,2.75 -2.41784,0.54715 -3.96711,1.23986 -5.31446,1.79297 -1.34734,0.5531 -2.51425,0.99565 -4.72851,1.31445 -7.45374,1.07315 -17.47667,-1.06757 -26.14063,-0.006 -4.29285,0.52607 -8.27009,1.83008 -12.11718,2.78516 -0.83175,0.20649 -2.95571,0.80198 -5.18555,1.46484 -2.22984,0.66286 -4.34722,1.29911 -5.53516,1.81836 -3.20201,1.39962 -5.80185,3.62257 -8.33398,5.50781 -2.53214,1.88524 -4.93978,3.41237 -7.5918,3.8711 -3.41522,0.59075 -7.89131,-0.1776 -11.85547,-0.75391 -5.52014,-0.80251 -13.14152,-1.66166 -18.36718,-1.80859 -7.49696,-0.21079 -15.012481,-0.24223 -22.525394,0 -1.8358,0.0592 -3.426908,0.56991 -4.789063,0.875 -1.362155,0.30509 -2.408666,0.39928 -3.232422,0.13672 -0.06378,-0.0203 -0.932438,-0.72315 -1.705078,-1.79688 -0.77264,-1.07373 -1.459653,-2.3201 -2.492187,-3.35351 -0.599695,-0.60021 -1.196662,-0.75554 -1.554688,-0.87305 -2.547436,-5.17514 -2.411894,-11.10447 -1.353516,-17.53125 1.068025,-6.48535 3.05895,-13.33792 3.664063,-20.08203 1.144189,-12.75221 3.61095,-25.50023 4.8125,-38.52344 2.192281,-23.76141 3.049308,-47.95856 2.216797,-71.82422 -0.250115,-7.17004 -1.092045,-14.19504 -1.326172,-21.13281 -0.753527,-22.32887 1.798486,-45.37884 -1.869141,-68.14063 -0.422136,-2.61982 -1.303945,-4.87692 -1.724609,-6.96289 -0.06743,-0.33436 -0.377849,-2.58292 -0.675781,-4.72265 -0.297933,-2.13974 -0.559117,-4.15408 -0.892578,-5.38086 -1.070632,-3.93878 -2.974371,-7.4134 -3.576172,-10.65821 -1.235322,-6.66063 -1.184093,-13.9113 -2.359375,-21.09765 -0.477835,-2.92176 -1.352432,-5.55455 -1.794922,-8.06055 -2.92157,-16.54608 -2.492188,-33.4494 -2.492188,-50.47461 0,-6.36608 0.191198,-12.682731 -0.765625,-19.240232 C 68.737807,90.8055 68.903552,88.469925 68.103516,85.947266 66.672379,81.43463 63.218982,75.650644 60.673828,71.804687 59.785296,70.462035 58.536886,69.387899 57.396484,68.296875 56.374209,67.318863 55.613926,66.42476 55.271484,65.892578 55.335741,65.525937 55.363339,65.030263 55,64.341797 c -0.156568,-0.29667 -0.445427,-1.042085 -0.789063,-1.835938 -0.343635,-0.793852 -0.709441,-1.672332 -1.53125,-2.49414 -0.04065,-0.04065 -0.08744,-0.01082 -0.130859,-0.04687 -0.151247,-0.446802 -0.403001,-0.873689 -0.808594,-1.166016 7.798762,0.459749 15.573234,0.562275 23.13086,1.146484 0.778942,0.06021 1.924876,0.544065 3.550781,0.736329 4.857281,0.574371 9.911343,0.01367 14.302734,0.01367 5.593462,0 11.294121,0.282767 17.082031,-0.002 2.03995,-0.10035 3.71425,-0.630545 5.10547,-0.753906 3.12124,-0.276763 6.65791,0.276821 10.44141,0.0039 2.36161,-0.170349 4.4868,-0.647284 6.4375,-0.783203 2.77734,-0.193515 5.87684,0.255293 9.24804,-0.002 2.81849,-0.215069 4.74472,-0.374848 6.02539,-0.496094 0.64034,-0.06062 1.11718,-0.111211 1.47852,-0.15625 0.36134,-0.04504 0.48557,-0.03213 0.94726,-0.173828 0.11543,-0.03543 0.23944,-0.02317 0.64258,-0.314453 0.0352,-0.02541 0.0864,-0.08564 0.12696,-0.119141 1.63156,-0.115684 1.77524,-0.145323 5.10156,-0.355468 26.76573,-1.690963 53.73131,-1.006683 80.73633,-1.882813 1.195,-0.03877 1.96617,-0.464722 2.65234,-0.765625 0.68617,-0.300903 1.29267,-0.500385 1.30664,-0.501953 7.62266,-0.855538 15.98137,0.01367 24.14648,0.01367 1.02167,0 1.31895,0.0078 1.4375,0.0098 0.007,1.24e-4 0.0122,-5.7e-5 0.0391,0 0.0134,2.8e-5 0.1071,-0.0019 0.10742,-0.002 1.6e-4,-7e-6 -0.17383,10e-7 -0.17383,0 0,0 0.36408,-3.658956 0.39063,-3.927734 0.10587,0.03328 0.13844,-0.01012 0.41015,0.224609 0.23109,0.199635 0.60019,0.626635 0.67969,1.279297 0.0795,0.652662 -0.21697,1.250813 -0.44336,1.525391 -0.45278,0.549155 -0.63181,0.504947 -0.70703,0.535156 -0.3009,0.120837 0.43814,-0.111332 1.77344,-0.298828 2.5508,-0.358172 5.43804,0.01953 8.58398,0.01953 h 22.66992 9.3125 c -0.16677,0 0.42036,0.02639 0.99414,0.06641 0.57379,0.04002 1.3019,0.088 2.04688,0.121093 0.74498,0.03309 1.49857,0.05361 2.18359,0.02539 0.34251,-0.01411 0.66404,-0.03855 1.00781,-0.09766 0.34378,-0.05911 0.69539,-0.02966 1.36329,-0.5625 0.0286,-0.02285 0.0241,-0.05629 0.0508,-0.08008 2.08214,-0.171697 4.40805,0.06445 7.02343,0.06445 3.78397,0 7.40814,-0.295075 10.8379,-0.0078 1.17583,0.09848 2.63244,0.584438 4.45898,0.744141 2.36716,0.206972 3.48672,0.110101 4.28125,0.01563 0.79453,-0.09448 1.20424,-0.17477 3.22461,-0.01367 1.7914,0.142841 6.1379,1.048509 10.35937,1.541016 2.11074,0.246253 4.22301,0.394602 6.1543,0.261718 1.93129,-0.132884 3.76492,-0.468369 5.21484,-1.769531 0.0865,-0.07762 0.32429,-0.165495 1.20899,-0.06641 0.8847,0.09909 2.0927,0.430238 3.56836,0.318359 5.0188,-0.380504 9.65302,-1.727086 14.13281,-2.291015 -0.32087,0.04039 0.65252,0.05363 1.48633,0.11914 0.83381,0.06551 1.59285,0.383676 3.00586,-0.318359 0.43217,-0.214717 0.76973,-0.350212 1.22851,-0.875 0.007,-0.0077 0.0107,-0.03299 0.0176,-0.04102 0.46524,-0.05762 0.54704,-0.06986 1.28516,-0.162109 h 0.004 0.004 c 1.23683,-0.159248 3.02366,0.281578 5.2832,0 3.08741,-0.384743 4.65756,-1.279297 6.98243,-1.279297 0.50374,0 0.28319,-0.01652 0.3789,-0.02734 0.0957,-0.01082 0.21576,-0.02488 0.36328,-0.04297 0.29505,-0.03618 0.69722,-0.08781 1.17188,-0.148437 0.94932,-0.121249 2.18983,-0.281962 3.42383,-0.441406 0.99559,-0.12864 1.89763,-0.242515 2.72461,-0.347657 z"
         id="path1" />
      <path
         style="color:#000000;fill:#000000;-inkscape-stroke:none"
         d="m 121.11914,133.125 c -0.33824,-0.006 -0.74313,0.0729 -1.16211,0.34766 -0.75427,0.4947 -0.87613,1.15084 -0.9082,1.51562 -1.11511,1.12094 -1.73483,2.0284 -2.17774,2.2793 -3.75471,2.12695 -7.86295,3.18225 -12.07031,2.94726 l -0.22851,4.09375 c 5.04233,0.28162 9.95085,-0.99746 14.32031,-3.47265 1.46886,-0.83209 2.17583,-1.88431 2.75195,-2.58203 0.51776,0.68136 1.03654,1.55813 1.61719,2.70898 1.03857,2.05846 2.37555,4.77165 5.42383,5.78711 2.34029,0.77961 5.08632,0.52718 7.83984,0.041 2.75352,-0.48617 5.35203,-1.25069 7.17578,-2.28711 0.25643,-0.14574 0.21296,-0.13297 0.33789,-0.21485 0.12493,-0.0819 0.28754,-0.18894 0.47656,-0.3125 0.37805,-0.2471 0.86527,-0.56101 1.35157,-0.86328 0.29968,-0.18628 0.54506,-0.32207 0.8125,-0.47656 0.079,0.0927 0.0626,0.1036 0.16992,0.21094 0.90438,0.90437 1.83611,1.96411 2.98437,2.97851 2.50301,2.21123 6.25742,5.2727 10.27149,6.28906 5.37564,1.36112 11.42123,-0.66601 15.43164,-0.66601 3.62918,0 7.75361,0.44632 11.83594,-0.0137 2.12549,-0.2395 3.20512,-0.39793 3.91406,-0.54883 0.70894,-0.1509 1.3956,-0.50235 1.28516,-0.44727 -0.22088,0.11017 0.16565,-0.0786 5.51757,-0.48242 1.91332,-0.14436 3.15737,-0.38855 3.51368,-0.21094 1.89131,0.94279 4.47571,1.58662 7.0664,0.74219 0.92668,-0.30205 1.72746,-0.74986 2.50391,-1.13281 0.77645,-0.38295 1.5331,-0.67801 1.7539,-0.7168 3.08478,-0.54181 6.43107,-0.54726 9.92579,-0.91015 2.44038,-0.25342 4.67176,-0.72452 6.74804,-0.81836 6.31853,-0.28558 16.681,-0.61486 23.07227,-0.008 0.84914,0.0807 1.16722,0.2322 0.97265,0.13477 -0.19456,-0.0974 -0.83898,-1.0807 -0.61132,-0.60156 0.11382,0.23957 0.63213,0.8915 1.15039,1.11718 0.51825,0.22569 0.85226,0.21445 1.15234,0.21485 0.60015,8e-4 1.2141,-0.0792 2.375,-0.24414 5.30047,-0.75326 8.27335,-4.59236 11.26563,-6.55078 2.04311,-1.3372 3.31589,-1.7646 4.80664,-1.9961 1.49074,-0.2315 3.30915,-0.20127 5.96679,-0.41797 1.97239,-0.16081 3.15949,-0.655 3.42774,-0.72461 0.13412,-0.0348 -0.0237,-0.0236 0.0449,-0.01 0.0687,0.0138 0.37807,0.10851 0.95312,0.40234 3.21945,1.645 4.98139,2.75083 7.13086,3.5 2.14947,0.74918 4.44709,0.9961 8.31446,0.9961 h 2.77539 c -0.28145,0 -0.1016,0.0112 0.3164,0.0801 0.418,0.0688 1.51777,0.14432 2.34375,-0.68164 0.66129,-0.66128 0.83295,-1.13066 1.11133,-1.5664 0.27838,-0.43575 0.60699,-0.74082 0.46289,-0.64453 0.51877,-0.34663 2.43785,-0.6827 4.54492,-0.625 2.10708,0.0577 4.32186,0.34179 6.06641,0.34179 4.52651,0 3.41777,-0.20245 8.42969,0.69532 1.92576,0.34495 2.31217,0.79734 1.54297,0.1875 0.41259,0.3424 1.0384,0.48353 1.22265,0.49804 0.37389,0.0294 0.43208,0.01 0.87305,0.01 0.78303,0 1.18966,-0.14788 1.78125,-0.2793 0.59159,-0.13142 1.22917,-0.27821 1.77344,-0.36914 0.54426,-0.0909 1.03028,-0.0894 1.02734,-0.0898 -0.001,-2.3e-4 -0.1796,-1.9e-4 -0.47851,-0.25 -0.29892,-0.24981 -0.53907,-0.82842 -0.53907,-1.12696 h 4.09961 c 0,-0.68959 -0.38106,-1.5594 -0.93164,-2.01953 -0.55058,-0.46013 -1.09057,-0.58877 -1.5332,-0.65625 -0.88526,-0.13494 -1.59728,-0.0212 -2.32031,0.0996 -0.72304,0.1208 -1.42299,0.28501 -1.98633,0.41016 -0.56334,0.12514 -1.13038,0.17969 -0.89258,0.17969 -0.23996,0 -0.18316,0.003 -0.28711,0.002 -0.56925,-0.25934 -1.16963,-0.36947 -2.62891,-0.63086 -5.03584,-0.90205 -4.73144,-0.75977 -9.15234,-0.75977 -1.23107,0 -3.58351,-0.2749 -5.95508,-0.33984 -2.37156,-0.0649 -4.84011,-0.0863 -6.93359,1.3125 -0.91847,0.61369 -1.29064,1.29984 -1.64063,1.84766 -0.11703,0.18318 -0.0832,0.14324 -0.18554,0.29296 -0.0773,-0.004 -0.0396,-0.0176 -0.13086,-0.0176 h -2.77539 c -3.70008,0 -5.38656,-0.21749 -6.96485,-0.76758 -1.57828,-0.5501 -3.28928,-1.57987 -6.61523,-3.2793 -0.7371,-0.37663 -1.34056,-0.63673 -2.01172,-0.77148 -0.67116,-0.13475 -1.3955,-0.0654 -1.88086,0.0605 -0.97072,0.25191 -1.23523,0.48535 -2.73242,0.60743 -2.45616,0.20026 -4.27812,0.14508 -6.26172,0.45312 -1.9836,0.30804 -4.01802,1.0439 -6.42188,2.61719 -3.77577,2.47121 -6.12179,5.42596 -9.59765,5.91992 -0.8699,0.12362 -1.17112,0.14404 -1.41016,0.16211 -0.12958,-0.11773 -0.1079,-0.18568 -0.24414,-0.25391 -0.70041,-0.35076 -1.3473,-0.4489 -2.41992,-0.55078 -6.92951,-0.65817 -17.2755,-0.2938 -23.64648,-0.006 -2.5304,0.11438 -4.83998,0.61501 -6.98633,0.83789 -3.21073,0.33341 -6.65781,0.32481 -10.21289,0.94922 -1.12669,0.1979 -2.01428,0.66033 -2.85743,1.07617 -0.84314,0.41584 -1.63738,0.80729 -1.95898,0.91211 -0.90038,0.29348 -3.02181,-0.0397 -3.96875,-0.51172 -2.37733,-1.18504 -4.51793,-0.29638 -5.65039,-0.21093 -5.3973,0.40721 -6.20847,0.49002 -7.03906,0.90429 -0.4153,0.20714 0.1133,0.0157 -0.3086,0.10547 -0.4219,0.0898 -1.44762,0.25092 -3.51953,0.48438 -3.45488,0.38929 -7.44092,-0.0117 -11.37695,-0.0117 -5.11962,0 -10.93165,1.67524 -14.42383,0.79101 -2.54072,-0.64331 -6.26042,-3.35126 -8.56445,-5.38671 -0.89524,-0.79088 -1.77511,-1.78098 -2.79883,-2.80469 0.0526,0.0526 -0.0935,-0.14506 -0.375,-0.50781 -0.28153,-0.36275 -0.82696,-1.00384 -1.79688,-1.23633 -1.14522,-0.27451 -1.26719,0.0453 -1.54296,0.15234 -0.27577,0.107 -0.51113,0.22333 -0.76172,0.35547 -0.50119,0.26429 -1.04115,0.58905 -1.57032,0.91797 -0.52916,0.32892 -1.04111,0.6588 -1.43164,0.91406 -0.19526,0.12763 -0.35973,0.23661 -0.47851,0.31445 -0.11878,0.0778 -0.32304,0.19707 -0.11719,0.0801 -1.00675,0.57213 -3.45979,1.3901 -5.86328,1.81446 -2.40349,0.42436 -4.91874,0.40905 -5.83008,0.10546 -1.23972,-0.41298 -2.0481,-1.73746 -3.06054,-3.74414 -1.01245,-2.00667 -2.14828,-4.69313 -5.03907,-5.83203 -0.15452,-0.0609 -0.42543,-0.15234 -0.76367,-0.1582 z"
         id="path2" />
      <path
         style="color:#000000;fill:#000000;-inkscape-stroke:none"
         d="m 132.47266,210.54492 c -4.0735,1.22166 -6.61028,4.44895 -9.01563,7.05078 -2.40535,2.60184 -4.50685,4.55347 -7.43555,4.78125 l 0.31836,4.08789 c 4.57692,-0.35598 7.61815,-3.3722 10.12696,-6.08593 2.12133,-2.29462 4.00014,-4.32476 6.05078,-5.375 0.17903,0.60397 0.45365,1.33335 1.47656,2.08007 2.04675,1.49415 4.87822,3.28769 8.0293,4.54688 3.15108,1.25919 6.67851,2.0405 10.08008,1.08984 1.07964,-0.30174 1.55614,-1.05709 1.77734,-1.37304 0.0635,-0.0907 0.0767,-0.0996 0.11133,-0.13868 0.16811,-0.0726 0.54437,-0.17331 1.27539,-0.38281 1.74613,-0.50041 3.53862,-0.95413 5.35351,-1.44336 2.47427,-0.54588 5.09202,-0.97063 7.75,-1.71875 3.13204,-0.88154 5.76421,-2.26375 8.28321,-2.79687 1.06215,-0.2248 2.59664,0.043 4.53125,0.043 1.42184,0 2.49784,-0.15452 3.19922,-0.0312 0.7364,0.12941 1.9713,1.03799 4.03125,1.33398 2.20754,0.3172 4.02868,-0.0807 5.38085,0.0156 -0.20857,-0.0149 14.7585,1.83472 14.84766,1.85351 1.11279,0.23454 2.51349,1.04485 4.46289,1.49024 3.70654,0.84684 7.52193,1.45732 11.38477,1.62695 4.3453,0.19082 8.52196,-0.17507 12.50781,0 3.41192,0.14987 7.0653,1.01018 11.04492,1.0332 0.47363,0.003 0.9039,-0.0778 1.36719,-0.0996 -0.10432,0.14346 -0.25898,0.18261 -0.35352,0.34375 -0.29556,0.50377 -0.78133,1.31533 -1.10937,2.28321 -0.16402,0.48393 -0.34756,1.00082 -0.22852,1.83007 0.0595,0.41463 0.24047,0.9461 0.64453,1.38868 0.40407,0.44257 0.98435,0.70837 1.4668,0.79296 6.90413,1.21058 13.6763,0.10253 20.00195,0.12696 14.93515,0.0576 29.73428,0.0374 44.73829,-1.17578 2.28777,-0.18499 5.9811,-0.35107 9.72656,-0.69141 3.74545,-0.34034 7.5163,-0.81683 10.35937,-1.83203 1.50527,-0.5375 2.28352,-1.56161 2.55469,-1.80664 0.27118,-0.24503 0.39752,-0.44258 2.14844,-0.59961 5.85877,-0.52542 12.30284,0.01 18.54492,0.01 2.88748,0 5.39157,0.22058 7.17969,0.26172 0.89405,0.0206 1.45336,0.18205 2.57226,-0.30273 0.27973,-0.1212 0.64188,-0.31823 0.97071,-0.7461 0.32882,-0.42786 0.51102,-1.10909 0.45703,-1.62109 -0.10799,-1.02399 -0.55792,-1.36261 -0.88477,-1.68945 l -2.90039,2.89844 c 0.048,0.048 -0.21005,0.009 -0.29297,-0.77735 -0.0415,-0.39314 0.11097,-0.97012 0.3711,-1.30859 0.26012,-0.33847 0.5145,-0.45955 0.64843,-0.51758 0.53573,-0.23211 -0.0889,-0.0158 -0.8457,-0.0332 -1.51361,-0.0348 -4.18187,-0.26563 -7.27539,-0.26563 -5.99739,0 -12.55343,-0.56049 -18.91211,0.01 -2.25699,0.20241 -3.71159,0.89803 -4.53125,1.63867 -0.81966,0.74064 -0.64221,0.79496 -1.18359,0.98828 -2.08602,0.74487 -5.73068,1.2823 -9.35157,1.61133 -3.62088,0.32902 -7.24512,0.48822 -9.68554,0.68555 -14.79171,1.19603 -29.47213,1.22163 -44.39258,1.16406 -6.08814,-0.0235 -11.95219,0.71368 -17.4375,0.11719 0.0704,-0.12824 0.11938,-0.25717 0.18164,-0.36329 0.1419,-0.24186 1.05596,-0.82647 2.44922,-1.36718 1.39325,-0.54072 3.16451,-0.9773 4.5,-2.62891 0.1932,-0.23894 0.6808,-0.78854 0.41992,-1.83984 -0.13044,-0.52565 -0.50584,-0.97265 -0.8125,-1.19141 -0.30666,-0.21876 -0.54441,-0.28636 -0.71875,-0.33008 -0.69737,-0.17487 -0.78373,-0.0634 -0.95117,-0.043 -0.33488,0.0408 -0.64268,0.0905 -0.4668,0.0742 -3.21418,0.29722 -6.17982,0.92223 -8.94531,0.90625 -3.36341,-0.0195 -6.96254,-0.85692 -10.88672,-1.02929 -4.3453,-0.19086 -8.52389,0.17503 -12.50977,0 -3.54997,-0.15589 -7.12336,-0.72152 -10.65039,-1.52735 -1.13079,-0.25835 -2.55238,-1.08878 -4.53125,-1.50586 -2.45785,-0.51802 -13.53021,-1.79817 -15.40234,-1.93164 -2.12858,-0.15171 -3.84132,0.19475 -5.08789,0.0156 -0.69947,-0.10051 -1.895,-0.95938 -3.9043,-1.3125 -1.63337,-0.28707 -2.96145,-0.0312 -3.91015,-0.0312 -1.36866,0 -3.21134,-0.41424 -5.38086,0.0449 -3.27038,0.69214 -5.97873,2.13959 -8.54297,2.86133 -2.38113,0.67019 -4.94345,1.09081 -7.58399,1.67578 l -0.0469,0.0117 -0.0449,0.0117 c -1.78512,0.48154 -3.60832,0.94173 -5.44727,1.46875 -0.47466,0.13603 -1.35964,0.23187 -2.38672,0.84765 -0.69363,0.41586 -0.86105,0.79395 -1.01953,1.05078 -2.03896,0.48162 -4.61026,0.0697 -7.18945,-0.96093 -2.68171,-1.07163 -5.28601,-2.70207 -7.13086,-4.04883 0.45324,0.33086 0.0116,-0.14655 -0.30469,-0.95117 -0.15815,-0.40231 -0.31133,-0.88161 -0.82617,-1.4629 -0.51484,-0.58128 -1.85517,-1.10039 -2.80859,-0.81445 z"
         id="path3" />
      <path
         style="color:#000000;fill:#000000;-inkscape-stroke:none;fill-opacity:1"
         d="m 221.70898,292.50977 c -2.92434,0.17781 -5.13534,1.33668 -6.84961,2.76171 -2.28568,1.90005 -3.9589,3.99243 -7.01757,5.59766 -5.3886,2.82802 -8.95048,2.95744 -15.42188,3.30664 -0.78599,0.0424 -2.64447,0.18621 -4.6543,0.16992 -2.00982,-0.0163 -4.20523,-0.34015 -4.80468,-0.63476 -0.0154,-0.008 -1.00687,-1.08221 -1.98633,-2.33985 -0.48973,-0.62881 -1.03125,-1.29487 -1.75586,-1.88281 -0.72461,-0.58793 -1.73152,-1.13166 -2.9375,-1.11914 -1.5912,0.0165 -2.36714,0.7012 -2.50781,0.74219 -3.51544,1.02432 -3.07831,0.90624 -7.67969,0.62695 -3.08046,-0.18697 -6.20004,-0.57335 -9.37891,-0.91016 -3.41026,-0.36131 -7.81717,-2.70052 -12.66406,-1.27148 -2.4724,0.72896 -3.82558,2.88879 -4.58789,4.95508 -0.76231,2.06628 -1.14117,4.30048 -1.63867,6.23437 -0.4975,1.9339 -1.14293,3.47728 -1.85742,4.18164 -0.7145,0.70437 -1.46298,1.06876 -3.76172,0.46094 l -1.04883,3.96289 c 3.17869,0.84049 5.96921,0.19004 7.6875,-1.5039 1.71829,-1.69394 2.3984,-3.93132 2.95117,-6.08008 0.55278,-2.14876 0.94804,-4.29942 1.51563,-5.83789 0.56759,-1.53848 1.10113,-2.2038 1.90039,-2.43946 2.79041,-0.82271 6.56256,0.93648 11.07031,1.41407 3.13003,0.33163 6.31236,0.72839 9.56445,0.92578 4.57855,0.2779 5.47737,0.26484 9.07422,-0.78321 1.18088,-0.34408 1.61906,-0.58035 1.4043,-0.57812 -0.0354,3.7e-4 0.0289,-0.0254 0.31055,0.20312 0.28163,0.22852 0.68302,0.67633 1.10546,1.21875 0.8449,1.08486 1.55809,2.58882 3.41211,3.5 2.00774,0.98674 4.3531,1.03665 6.58008,1.05469 2.22698,0.018 4.30333,-0.14314 4.9082,-0.17578 6.45922,-0.34854 11.06999,-0.60295 17.10743,-3.77148 3.79745,-1.99296 5.90311,-4.55355 7.73242,-6.07422 1.82931,-1.52068 3.11068,-2.28105 6.74219,-1.69141 6.58603,1.06936 8.59139,2.18317 15.21679,3.57813 5.34623,1.12563 10.59247,1.17501 15.3086,2.35742 1.95195,0.48939 4.08335,1.82484 6.85351,2.5625 4.74699,1.26407 9.33802,1.03742 13.17383,2.28125 0.0431,0.014 0.0189,0.008 0.0605,0.0215 0.005,0.006 0.0109,0.0231 0.0156,0.0293 0.24315,0.31635 0.40871,0.42232 0.56055,0.53125 0.30367,0.21786 0.57785,0.36119 0.96875,0.55664 1.09604,0.54802 1.48164,0.35018 2.18945,0.33594 0.70782,-0.0142 1.53215,-0.0784 2.47071,-0.17774 1.87711,-0.19877 4.18925,-0.53629 6.51171,-0.91211 4.64492,-0.75163 9.12967,-1.6106 10.40235,-1.91796 1.28656,-0.31072 2.49014,-0.87643 3.60547,-1.21875 1.11533,-0.34233 1.94401,-0.3201 2.09179,-0.25 2.5139,1.19245 4.66307,2.99687 5.8418,5.33593 -0.0237,-0.047 0.0384,0.13408 0.12695,0.53321 0.0886,0.39913 0.21716,1.05134 0.72657,1.74023 1.19357,1.61414 2.81755,1.75153 3.51171,1.98242 5.70668,1.89813 12.03716,0.69559 17.13477,-0.75976 2.42005,-0.69091 3.2565,-1.541 4.91992,-1.8711 1.02066,-0.20254 2.87353,0.24123 4.91406,0.96875 2.04054,0.72753 4.18576,1.70117 6.5625,1.70117 v -4.10156 c -1.04029,0 -3.03948,-0.69579 -5.18554,-1.46094 -2.14607,-0.76514 -4.52122,-1.63864 -7.08985,-1.1289 -2.55037,0.5061 -3.59292,1.4792 -5.24609,1.95117 -4.76632,1.36077 -10.42548,2.23726 -14.71484,0.81055 -1.08091,-0.35953 -1.59111,-0.6393 -1.50977,-0.5293 0.0955,0.12919 0.0458,0.10482 -0.0195,-0.18945 -0.0653,-0.29428 -0.13182,-0.82165 -0.46875,-1.49024 -1.69101,-3.35563 -4.60959,-5.70659 -7.74805,-7.19531 -1.83982,-0.87272 -3.60234,-0.41137 -5.05078,0.0332 -1.44844,0.44457 -2.78115,1.01324 -3.36523,1.1543 -0.7072,0.1708 -5.53538,1.11557 -10.09571,1.85352 -2.28016,0.36897 -4.54507,0.69834 -6.28711,0.88281 -0.77961,0.0826 -1.40097,0.1251 -1.89843,0.14258 -0.16226,-0.15896 -0.36202,-0.39034 -0.43946,-0.4375 -0.12382,-0.0754 -0.19568,-0.1073 -0.25976,-0.13672 -0.51268,-0.23541 -0.86999,-0.33058 -1.9707,-0.6875 -4.78636,-1.55205 -9.47721,-1.30321 -13.38477,-2.34375 -1.96357,-0.52288 -4.11245,-1.8762 -6.91211,-2.57813 -5.34958,-1.34122 -10.6506,-1.38019 -15.45898,-2.39258 -6.35047,-1.33706 -8.50759,-2.49152 -15.4043,-3.61132 -1.14127,-0.18531 -2.19709,-0.23506 -3.17188,-0.17578 z"
         id="path4" />
      <path
         style="color:#000000;fill:#000000;-inkscape-stroke:none"
         d="m 241.80078,359.83984 c -1.71544,-0.0731 -3.54176,-0.0652 -5.26367,0.26368 -2.59055,0.49475 -4.77581,1.40012 -6.76758,1.69921 -4.93798,0.74151 -9.96417,1.20528 -15.02734,1.75391 -0.37913,0.0411 -0.98717,0.008 -1.49024,-0.006 -0.32232,-0.29908 -0.69687,-0.55758 -1.0332,-0.61133 -5.51008,-0.88009 -16.11837,-0.34072 -21.41406,-0.0215 -2.89005,0.17423 -4.48761,0.39342 -6.01563,0.92773 -1.52801,0.53431 -2.73508,1.24488 -5.26562,2.39453 l 1.69531,3.73243 c 2.64598,-1.2021 3.88425,-1.89235 4.92383,-2.25586 1.03958,-0.36352 2.12996,-0.53954 4.9082,-0.70703 4.75009,-0.28636 13.86598,-0.55112 18.79492,-0.084 v 0.71875 h 2.05078 c 0.87544,0 1.9777,0.13016 3.28711,-0.0117 5.02016,-0.54397 10.10339,-1.01272 15.19532,-1.77734 2.66128,-0.39963 4.89659,-1.33669 6.92773,-1.72461 2.29697,-0.43869 6.00381,0.0371 9.09375,0.0371 v -4.10156 c -1.27973,0 -2.88416,-0.15345 -4.59961,-0.22657 z"
         id="path5" />
    </g>
  </g>
</svg>
